<?xml version="1.0" standalone="no"?>
<!DOCTYPE svg PUBLIC "-//W3C//DTD SVG 20010904//EN"
 "http://www.w3.org/TR/2001/REC-SVG-20010904/DTD/svg10.dtd">
<svg version="1.0" xmlns="http://www.w3.org/2000/svg"
 width="300.000000pt" height="168.000000pt" viewBox="0 0 300.000000 168.000000"
 preserveAspectRatio="xMidYMid meet">
<metadata>
Created by potrace 1.16, written by Peter Selinger 2001-2019
</metadata>
<g transform="translate(0.000000,168.000000) scale(0.100000,-0.100000)"
fill="#000000" stroke="none">
<path d="M0 840 l0 -840 658 0 c541 1 660 3 675 14 17 13 17 15 -2 28 -25 18
-61 150 -60 223 0 43 4 34 24 -65 14 -63 25 -119 25 -123 0 -5 4 -6 10 -2 5 3
24 -8 42 -26 24 -23 28 -29 13 -25 -20 6 -20 6 0 -9 28 -22 60 -15 60 12 0 11
3 25 8 29 4 4 7 -7 7 -24 l0 -32 577 0 577 0 -35 37 c-18 21 -38 41 -43 44 -8
6 80 99 94 99 3 0 20 -16 37 -35 30 -34 30 -34 11 -52 -16 -14 -48 -74 -48
-89 0 -2 83 -4 185 -4 l185 0 0 840 0 840 -1073 0 c-845 0 -1076 -3 -1086 -12
-11 -10 -13 -10 -7 0 4 6 3 12 -2 12 -6 0 -15 -14 -21 -31 -13 -39 -14 -42 -1
-34 6 3 10 2 10 -4 0 -5 -5 -13 -12 -17 -8 -5 -6 -10 8 -15 15 -6 11 -8 -15
-8 -32 -1 -33 -2 -18 -19 22 -24 22 -36 0 -28 -15 5 -14 3 2 -10 11 -9 14 -14
6 -12 -24 7 -53 53 -61 96 -9 51 -4 59 45 71 27 6 -93 9 -367 10 l-408 1 0
-840z m185 758 c28 -29 42 -46 33 -39 -23 17 -39 5 -63 -51 -11 -24 -21 -45
-23 -48 -2 -3 -23 18 -47 45 l-44 50 47 48 c25 26 47 47 47 47 0 0 23 -23 50
-52z m1105 -15 c25 -26 38 -42 29 -35 -19 14 -36 -1 -64 -58 -18 -34 -18 -35
1 -20 18 14 18 14 1 -6 -12 -15 -20 -46 -24 -94 l-6 -72 -36 7 c-94 19 -152
21 -173 6 -18 -12 -25 -12 -54 4 -29 15 -36 16 -50 4 -14 -12 -16 -11 -13 6 3
13 15 22 34 25 32 5 49 40 21 40 -9 0 -16 -4 -16 -9 0 -19 -32 -19 -51 0 -12
12 -28 19 -37 17 -14 -4 -18 4 -20 39 -1 23 1 43 6 43 5 0 7 -15 4 -32 -3 -26
-2 -30 8 -22 7 7 13 24 13 38 1 14 6 26 10 26 5 0 5 5 2 10 -3 6 -2 10 3 10 5
0 7 10 5 23 -6 30 43 79 57 57 5 -8 10 -10 10 -5 0 6 5 3 10 -5 8 -13 10 -13
10 1 0 21 34 18 61 -7 l22 -19 -8 25 c-7 23 -7 24 11 10 10 -8 27 -23 36 -35
17 -20 17 -20 31 -1 14 19 16 19 41 3 14 -10 26 -13 26 -8 0 5 -7 12 -15 15
-12 4 -9 12 17 36 18 16 38 30 43 30 6 0 31 -21 55 -47z m-970 -3 c0 -22 -10
-26 -27 -9 -7 7 -10 2 -10 -18 0 -15 2 -22 4 -15 3 6 11 12 18 12 7 0 15 -6
18 -12 2 -7 7 4 11 25 6 31 11 38 28 35 15 -2 25 -15 34 -43 l13 -40 -2 39
c-2 41 17 61 34 35 6 -10 9 -11 9 -1 0 6 7 12 16 12 12 0 14 -10 12 -47 l-3
-48 -105 3 c-57 2 -108 6 -112 8 -9 6 -11 46 -2 68 4 10 18 16 35 16 22 0 29
-5 29 -20z m2358 -13 c30 -31 32 -35 16 -48 -10 -8 -26 -34 -37 -58 l-19 -43
-50 48 -49 49 46 43 c26 23 50 42 54 42 4 0 22 -15 39 -33z m-1248 -3 c0 -20
-21 -28 -31 -13 -6 10 -9 5 -9 -16 0 -21 3 -26 9 -16 5 7 14 10 20 7 7 -5 14
4 17 23 5 24 12 31 30 31 19 0 24 -7 32 -42 l10 -43 1 41 c1 41 1 42 40 42
l38 1 -5 -47 c-6 -56 -7 -58 -27 -42 -10 8 -15 9 -15 1 0 -13 -62 -3 -72 13
-5 8 -8 7 -8 -1 0 -9 -17 -13 -50 -13 -33 0 -50 4 -51 13 -4 31 2 72 12 78 16
10 59 -2 59 -17z m1398 -34 c3 -9 -2 -11 -17 -7 -15 4 -21 1 -21 -12 0 -10 8
-17 21 -17 14 0 22 8 26 28 4 21 11 28 29 28 18 0 24 -6 25 -22 0 -13 5 -32
10 -43 7 -15 8 -9 5 23 -4 36 -1 42 15 42 10 0 19 -6 20 -12 0 -10 2 -10 6 0
2 6 11 12 19 12 12 0 14 -11 12 -47 -3 -48 -3 -48 -38 -46 -19 1 -68 2 -107 2
l-73 1 0 44 c0 27 5 46 13 49 17 6 50 -7 55 -23z m-1934 -449 c43 -60 66 -82
88 -86 25 -6 29 -11 24 -30 -5 -19 -3 -22 20 -17 23 4 24 6 9 22 -15 17 -15
19 4 29 30 16 31 15 27 -39 -3 -28 -1 -48 3 -46 4 3 9 -22 10 -56 2 -80 -26
-229 -47 -245 -13 -11 -71 -19 -72 -10 -1 1 -7 36 -14 77 -7 40 -12 88 -12
106 1 18 -2 30 -6 28 -4 -3 -10 8 -14 23 -30 134 -49 198 -76 260 -17 40 -28
82 -25 93 4 17 2 18 -14 9 -15 -7 -19 -6 -19 5 0 8 10 16 23 18 18 2 23 -3 27
-29 3 -18 31 -68 64 -112z m687 -68 c44 -26 107 -143 77 -143 -6 0 -8 -11 -6
-25 5 -25 -14 -36 -27 -15 -3 6 -1 10 4 10 6 0 11 7 11 15 0 15 -60 31 -85 22
-8 -4 -17 -2 -20 3 -4 7 -13 7 -24 0 -10 -5 -35 -9 -56 -8 -44 2 -57 -14 -51
-62 l5 -35 -15 28 c-8 15 -13 35 -12 45 2 9 -3 16 -9 14 -7 -1 -13 5 -13 13 0
8 -4 15 -9 15 -5 0 -11 11 -13 25 -3 14 -1 25 3 25 5 0 9 8 9 18 0 20 38 51
84 69 39 16 108 9 147 -14z m-1421 -113 c17 -22 27 -40 21 -40 -6 0 -23 -25
-38 -55 l-27 -55 -48 47 -48 47 47 48 c26 26 50 48 54 48 4 0 22 -18 39 -40z
m1622 -41 c47 -22 125 -152 115 -191 -4 -12 -1 -18 8 -16 8 2 20 -5 27 -15 11
-14 19 -16 39 -9 18 8 28 22 37 58 16 60 21 70 49 78 19 6 21 4 18 -16 -7 -37
-47 -138 -54 -138 -4 0 -12 5 -18 11 -8 8 -17 1 -32 -30 -21 -40 -58 -57 -58
-26 0 8 4 12 8 10 12 -8 17 19 8 43 -5 12 -14 22 -21 21 -10 0 -10 -2 0 -6 6
-2 12 -12 12 -21 0 -12 -9 -8 -32 15 -48 45 -69 54 -86 37 -7 -8 -19 -14 -25
-14 -7 0 -6 4 3 10 8 5 11 10 5 10 -5 0 1 7 14 14 20 11 21 14 6 20 -10 3 -15
12 -11 21 3 10 -3 17 -19 21 -24 6 -52 31 -44 38 2 3 23 1 46 -3 23 -5 44 -6
47 -4 2 3 -3 17 -12 33 -16 28 -82 57 -102 45 -6 -3 -10 -1 -10 4 0 14 53 14
82 0z m1036 -33 c3 -15 0 -18 -17 -13 -18 4 -21 1 -20 -21 0 -15 3 -21 6 -14
6 16 30 16 35 0 3 -7 8 6 11 30 4 23 10 42 13 42 20 0 44 -24 44 -45 0 -13 5
-27 12 -31 8 -5 9 3 5 29 -5 32 -3 37 14 37 10 0 19 -6 20 -12 0 -10 2 -10 6
0 2 6 10 12 18 12 8 0 13 -15 13 -45 1 -38 -2 -45 -18 -45 -12 0 -20 7 -21 18
-1 16 -2 16 -6 0 -4 -15 -16 -18 -89 -17 -80 1 -84 2 -90 25 -3 13 -3 36 0 50
5 20 12 25 34 22 17 -2 28 -10 30 -22z m-24 -692 c22 -9 21 -38 -1 -32 -14 4
-18 -2 -19 -21 -1 -14 1 -20 3 -13 6 16 30 16 36 0 2 -7 7 4 11 25 6 31 11 37
31 37 19 0 25 -5 25 -22 0 -13 5 -30 11 -38 8 -11 9 -6 7 23 -3 30 -1 37 14
37 10 0 18 -6 19 -12 0 -10 2 -10 6 0 2 6 11 12 19 12 10 0 14 -13 14 -45 0
-38 -3 -45 -20 -45 -12 0 -20 7 -21 18 -1 16 -2 16 -6 0 -4 -15 -17 -18 -88
-18 -75 0 -84 2 -90 20 -7 23 3 62 19 72 14 9 11 9 30 2z"/>
</g>
</svg>
